<svg width="32" height="32" viewBox="0 0 32 32" fill="none" xmlns="http://www.w3.org/2000/svg">
	<rect width="32" height="32" rx="8" fill="#F8F9F9"/>
	<path d="M18 21C21.866 21 25 17.866 25 14C25 10.134 21.866 7 18 7C14.134 7 11 10.134 11 14C11 17.866 14.134 21 18 21Z" stroke="#35D07F" stroke-width="2"/>
	<path d="M14 25C17.866 25 21 21.866 21 18C21 14.134 17.866 11 14 11C10.134 11 7 14.134 7 18C7 21.866 10.134 25 14 25Z" stroke="#FBCC5C" stroke-width="2"/>
	<path fill-rule="evenodd" clip-rule="evenodd" d="M12.2426 12.2568C12.2468 12.243 12.251 12.2293 12.2553 12.2155C12.5116 11.3914 12.9408 10.6435 13.5004 10.0142C12.5044 10.0738 11.5575 10.3156 10.6925 10.7067C10.3185 11.5338 10.081 12.4359 10.0089 13.3842C10.0056 13.4276 10.0026 13.4711 10 13.5146C10.6398 12.9457 11.4022 12.5115 12.2426 12.2568ZM18.4707 21.9853C19.3984 21.9298 20.2835 21.7162 21.0995 21.3711C21.1595 21.3457 21.2192 21.3195 21.2785 21.2927C21.6697 20.4278 21.9115 19.4809 21.9711 18.4849C21.9156 18.5341 21.8593 18.5824 21.8021 18.6296C21.1986 19.1277 20.4961 19.51 19.7285 19.7427C19.4737 20.5831 19.0396 21.3454 18.4707 21.9853Z" fill="#5EA33B"/>
</svg>
