<svg width="32" height="32" viewBox="0 0 32 32" fill="none" xmlns="http://www.w3.org/2000/svg">	<rect width="32" height="32" rx="8" fill="white"/>	<g clip-path="url(#clip0_377_7064)">		<path d="M16 32C24.8366 32 32 24.8366 32 16C32 7.16344 24.8366 0 16 0C7.16344 0 0 7.16344 0 16C0 24.8366 7.16344 32 16 32Z" fill="white"/>		<path d="M9.58838 20.5864L16.5366 2.30005C17.8876 2.18973 21.4003 2.66413 24.6427 5.44432C20.871 9.21744 13.035 17.1112 9.58838 20.5864Z" fill="url(#paint0_linear_377_7064)"/>		<path d="M12.8968 4.61694L2.30917 15.2082C2.17131 17.1941 2.57386 21.8442 5.28696 24.5583C6.94129 19.9907 11.0495 9.36093 12.8968 4.61694Z" fill="url(#paint1_linear_377_7064)"/>		<path d="M24.8081 26.4613C17.6613 32.3526 10.0845 28.9161 7.18945 26.4613L15.9574 17.7732C17.9426 19.759 22.4919 24.2769 24.8081 26.4613Z" fill="url(#paint2_linear_377_7064)"/>		<path d="M26.4625 24.6411C28.9164 21.745 32.352 14.1657 26.4625 7.0166C24.2788 9.33344 19.7625 13.8843 17.7773 15.8702L26.4625 24.6411Z" fill="url(#paint3_linear_377_7064)"/>		<mask id="mask0_377_7064" style="mask-type:alpha" maskUnits="userSpaceOnUse" x="2" y="2" width="28" height="28">			<path d="M9.58813 20.5864L16.5363 2.30005C17.8874 2.18973 21.4001 2.66413 24.6425 5.44432C20.8707 9.21744 13.0347 17.1112 9.58813 20.5864Z" fill="url(#paint4_linear_377_7064)"/>			<path d="M12.8968 4.61694L2.30917 15.2082C2.17131 17.1941 2.57386 21.8442 5.28696 24.5583C6.94129 19.9907 11.0495 9.36093 12.8968 4.61694Z" fill="url(#paint5_linear_377_7064)"/>			<path d="M24.8081 26.4613C17.6613 32.3526 10.0845 28.9161 7.18945 26.4613L15.9574 17.7732C17.9426 19.759 22.4919 24.2769 24.8081 26.4613Z" fill="url(#paint6_linear_377_7064)"/>			<path d="M26.4622 24.6409C28.9162 21.7447 32.3517 14.1654 26.4622 7.01636C24.2786 9.33319 19.7622 13.8841 17.7771 15.87L26.4622 24.6409Z" fill="url(#paint7_linear_377_7064)"/>		</mask>		<g mask="url(#mask0_377_7064)">			<g filter="url(#filter0_f_377_7064)">				<path d="M17.6586 19.9759C15.0495 22.6588 15.1086 26.9495 17.7905 29.5595C20.4725 32.1695 24.7618 32.1105 27.3709 29.4276C29.9801 26.7447 29.921 22.454 27.2391 19.844C24.5571 17.234 20.2678 17.293 17.6586 19.9759Z" fill="url(#paint8_linear_377_7064)"/>			</g>		</g>	</g>	<defs>		<filter id="filter0_f_377_7064" x="14.189" y="16.3738" width="16.6516" height="16.656" filterUnits="userSpaceOnUse" color-interpolation-filters="sRGB">			<feFlood flood-opacity="0" result="BackgroundImageFix"/>			<feBlend mode="normal" in="SourceGraphic" in2="BackgroundImageFix" result="shape"/>			<feGaussianBlur stdDeviation="0.775385" result="effect1_foregroundBlur_377_7064"/>		</filter>		<linearGradient id="paint0_linear_377_7064" x1="24.6401" y1="5.0285" x2="11.4082" y2="25.9504" gradientUnits="userSpaceOnUse">			<stop stop-color="#FB8C05"/>			<stop offset="0.479167" stop-color="#FE3400"/>			<stop offset="1" stop-color="#B6022F"/>		</linearGradient>		<linearGradient id="paint1_linear_377_7064" x1="24.6399" y1="5.02857" x2="11.408" y2="25.9505" gradientUnits="userSpaceOnUse">			<stop stop-color="#FB8C05"/>			<stop offset="0.479167" stop-color="#FE3400"/>			<stop offset="1" stop-color="#B6022F"/>		</linearGradient>		<linearGradient id="paint2_linear_377_7064" x1="24.6399" y1="5.02851" x2="11.4081" y2="25.9504" gradientUnits="userSpaceOnUse">			<stop stop-color="#FB8C05"/>			<stop offset="0.479167" stop-color="#FE3400"/>			<stop offset="1" stop-color="#B6022F"/>		</linearGradient>		<linearGradient id="paint3_linear_377_7064" x1="24.6401" y1="5.02865" x2="11.4082" y2="25.9506" gradientUnits="userSpaceOnUse">			<stop stop-color="#FB8C05"/>			<stop offset="0.479167" stop-color="#FE3400"/>			<stop offset="1" stop-color="#B6022F"/>		</linearGradient>		<linearGradient id="paint4_linear_377_7064" x1="24.6398" y1="5.0285" x2="11.408" y2="25.9504" gradientUnits="userSpaceOnUse">			<stop stop-color="#FB8C05"/>			<stop offset="0.479167" stop-color="#FE3400"/>			<stop offset="1" stop-color="#B6022F"/>		</linearGradient>		<linearGradient id="paint5_linear_377_7064" x1="24.6399" y1="5.02857" x2="11.408" y2="25.9505" gradientUnits="userSpaceOnUse">			<stop stop-color="#FB8C05"/>			<stop offset="0.479167" stop-color="#FE3400"/>			<stop offset="1" stop-color="#B6022F"/>		</linearGradient>		<linearGradient id="paint6_linear_377_7064" x1="24.6399" y1="5.02851" x2="11.4081" y2="25.9504" gradientUnits="userSpaceOnUse">			<stop stop-color="#FB8C05"/>			<stop offset="0.479167" stop-color="#FE3400"/>			<stop offset="1" stop-color="#B6022F"/>		</linearGradient>		<linearGradient id="paint7_linear_377_7064" x1="24.6398" y1="5.0284" x2="11.408" y2="25.9503" gradientUnits="userSpaceOnUse">			<stop stop-color="#FB8C05"/>			<stop offset="0.479167" stop-color="#FE3400"/>			<stop offset="1" stop-color="#B6022F"/>		</linearGradient>		<linearGradient id="paint8_linear_377_7064" x1="18.5416" y1="20.8352" x2="8.90582" y2="27.6455" gradientUnits="userSpaceOnUse">			<stop stop-color="#D4016A" stop-opacity="0"/>			<stop offset="1" stop-color="#D4016A"/>		</linearGradient>		<clipPath id="clip0_377_7064">			<rect width="32" height="32" fill="white"/>		</clipPath>	</defs></svg>