<svg xmlns="http://www.w3.org/2000/svg" width="32" height="32" viewBox="0 0 32 32" fill="none">
  <g clip-path="url(#clip0_1781_12813)">
    <rect y="-1" width="32" height="32" fill="#A5FFBE"/>
    <path d="M32 15C32 6.16344 24.8366 -1 16 -1C7.16344 -1 0 6.16344 0 15C0 23.8366 7.16344 31 16 31C24.8366 31 32 23.8366 32 15Z" fill="#A5FFBE"/>
    <path d="M5.2793 11.5383V11H8.55751V11.5383L7.61166 11.6529C7.60449 12.1264 7.59732 12.6075 7.59017 13.0962C7.59017 13.5773 7.59017 14.0622 7.59017 14.551V15.2498C7.59017 15.6545 7.59017 16.0898 7.59017 16.5555C7.59732 17.0214 7.60449 17.4948 7.61166 17.976H9.7828L10.0838 16.3952H10.8361L10.7286 18.5945H5.2793V18.0561L6.18215 17.953C6.19648 17.4719 6.20365 16.9985 6.20365 16.5326C6.20365 16.0592 6.20365 15.6049 6.20365 15.1696V14.551C6.20365 14.0546 6.20365 13.5659 6.20365 13.0847C6.20365 12.596 6.19648 12.1149 6.18215 11.6414L5.2793 11.5383Z" fill="#303B33"/>
    <path d="M14.1783 17.8077C13.6909 17.8077 13.2503 17.693 12.8562 17.4639C12.4692 17.2348 12.1611 16.9028 11.9318 16.4675C11.7025 16.0322 11.5879 15.5128 11.5879 14.9096C11.5879 14.2987 11.7061 13.7755 11.9426 13.3402C12.1862 12.9049 12.5051 12.5728 12.8992 12.3437C13.2933 12.1146 13.7196 12 14.1783 12C14.6368 12 15.0631 12.1146 15.4573 12.3437C15.8514 12.5728 16.1703 12.9049 16.4139 13.3402C16.6575 13.7679 16.7793 14.291 16.7793 14.9096C16.7793 15.5205 16.6611 16.0436 16.4246 16.4789C16.1953 16.9065 15.8836 17.2348 15.4894 17.4639C15.1026 17.693 14.6655 17.8077 14.1783 17.8077ZM14.1783 17.2464C14.5651 17.2464 14.859 17.0555 15.0595 16.6737C15.2674 16.2918 15.3712 15.7075 15.3712 14.921C15.3712 13.3479 14.9736 12.5613 14.1783 12.5613C13.39 12.5613 12.9959 13.3479 12.9959 14.921C12.9959 15.7075 13.0962 16.2918 13.2969 16.6737C13.4975 17.0555 13.7913 17.2464 14.1783 17.2464Z" fill="#303B33"/>
    <path d="M20.2016 17.8077C19.7143 17.8077 19.2736 17.693 18.8796 17.4639C18.4926 17.2348 18.1845 16.9028 17.9553 16.4675C17.7259 16.0322 17.6113 15.5128 17.6113 14.9096C17.6113 14.2987 17.7295 13.7755 17.9659 13.3402C18.2097 12.9049 18.5284 12.5728 18.9226 12.3437C19.3167 12.1146 19.743 12 20.2016 12C20.6602 12 21.0865 12.1146 21.4807 12.3437C21.8747 12.5728 22.1936 12.9049 22.4372 13.3402C22.6808 13.7679 22.8026 14.291 22.8026 14.9096C22.8026 15.5205 22.6844 16.0436 22.448 16.4789C22.2187 16.9065 21.907 17.2348 21.5129 17.4639C21.1259 17.693 20.6889 17.8077 20.2016 17.8077ZM20.2016 17.2464C20.5885 17.2464 20.8823 17.0555 21.0829 16.6737C21.2908 16.2918 21.3946 15.7075 21.3946 14.921C21.3946 13.3479 20.997 12.5613 20.2016 12.5613C19.4134 12.5613 19.0194 13.3479 19.0194 14.921C19.0194 15.7075 19.1196 16.2918 19.3203 16.6737C19.521 17.0555 19.8147 17.2464 20.2016 17.2464Z" fill="#303B33"/>
    <path d="M25.4025 18.228C24.9726 18.228 24.6358 18.1134 24.3922 17.8843C24.1486 17.6552 24.0268 17.2887 24.0268 16.7848C24.0268 16.6091 24.0268 16.4449 24.0268 16.2922C24.0339 16.1317 24.0375 15.9409 24.0375 15.7194V13.2795H23.2422V12.6839L24.1128 12.5693L24.5212 11H25.3918L25.3488 12.5808H26.6386V13.2795H25.3381V16.6588C25.3381 16.9413 25.3882 17.1474 25.4886 17.2772C25.596 17.4071 25.7358 17.472 25.9077 17.472C26.1012 17.472 26.3197 17.3765 26.5633 17.1856L26.8213 17.472C26.6851 17.7087 26.4988 17.8958 26.2624 18.0333C26.0259 18.1632 25.7394 18.228 25.4025 18.228Z" fill="#303B33"/>
  </g>
  <defs>
    <clipPath id="clip0_1781_12813">
      <rect width="32" height="32" rx="8" fill="white"/>
    </clipPath>
  </defs>
</svg>