<svg xmlns="http://www.w3.org/2000/svg" width="32" height="32" viewBox="0 0 32 32" fill="none">
  <g clip-path="url(#clip0_1785_12860)">
    <mask id="mask0_1785_12860" style="mask-type:luminance" maskUnits="userSpaceOnUse" x="0" y="0" width="32" height="32">
      <path d="M32 16C32 7.16344 24.8366 0 16 0C7.16344 0 0 7.16344 0 16C0 24.8366 7.16344 32 16 32C24.8366 32 32 24.8366 32 16Z" fill="white"/>
      <rect width="32" height="32" rx="8" fill="white"/>
    </mask>
    <g mask="url(#mask0_1785_12860)">
      <path d="M32 0H0V32H32V0Z" fill="#00E0CA"/>
      <g opacity="0.9">
        <path d="M23.3117 8.64289C20.0552 5.1851 14.7032 5.11058 11.3577 8.47646C8.01236 11.8424 7.94028 17.374 11.1968 20.8318L13.3377 18.6779C11.2376 16.4344 11.2882 12.8558 13.4539 10.6768C15.6197 8.49784 19.082 8.54188 21.1953 10.7722L23.3117 8.64289Z" fill="#00121F"/>
        <path d="M9.08984 22.9573C12.3464 26.415 17.6982 26.4895 21.0437 23.1236C24.3891 19.7577 24.4611 14.2261 21.2047 10.7683L19.0639 12.9221C21.1642 15.1656 21.1135 18.7442 18.9478 20.9232C16.782 23.1021 13.3197 23.0581 11.2064 20.8278L9.08984 22.9573Z" fill="#00121F"/>
      </g>
    </g>
  </g>
  <defs>
    <clipPath id="clip0_1785_12860">
      <rect width="32" height="32" fill="white"/>
    </clipPath>
  </defs>
</svg>