<svg width="30" height="36" viewBox="0 0 30 36" fill="none" xmlns="http://www.w3.org/2000/svg">
<g id="Group">
<path id="Vector" d="M29.016 5.526C29.016 8.5725 26.5365 11.052 23.49 11.052H7.335C6.4665 11.052 5.76 11.7585 5.76 12.627C5.76 13.4955 6.4665 14.202 7.335 14.202H14.877C17.9235 14.202 20.403 16.6815 20.403 19.728C20.403 22.7745 17.9235 25.254 14.877 25.254H3.7845C2.6955 25.254 1.809 24.3675 1.809 23.2785C1.809 22.1895 2.6955 21.303 3.7845 21.303H14.877C15.7455 21.303 16.452 20.5965 16.452 19.728C16.452 18.8595 15.7455 18.153 14.877 18.153H7.335C4.2885 18.153 1.809 15.6735 1.809 12.627C1.809 9.5805 4.2885 7.101 7.335 7.101H23.49C24.3585 7.101 25.065 6.3945 25.065 5.526C25.065 4.6575 24.3585 3.951 23.49 3.951H15.417C14.328 3.951 13.4415 3.0645 13.4415 1.9755C13.4415 0.8865 14.328 0 15.417 0H23.49C26.5365 0 29.016 2.4795 29.016 5.526ZM3.7845 28.431C1.6965 28.431 0 30.1275 0 32.2155C0 34.3035 1.6965 36 3.7845 36C5.8725 36 7.569 34.3035 7.569 32.2155C7.569 30.1275 5.868 28.431 3.7845 28.431ZM3.7845 33.804C2.907 33.804 2.196 33.0885 2.196 32.2155C2.196 31.338 2.9115 30.627 3.7845 30.627C4.662 30.627 5.373 31.3425 5.373 32.2155C5.373 33.093 4.6575 33.804 3.7845 33.804ZM7.9065 1.9755C7.9065 0.8865 8.7885 0 9.882 0C10.9755 0 11.8575 0.882 11.8575 1.9755C11.8575 3.069 10.9755 3.951 9.882 3.951C8.7885 3.951 7.9065 3.0645 7.9065 1.9755Z" fill="#00ADB5"/>
</g>
</svg>
