<svg width="118" height="23" viewBox="0 0 118 23" fill="none" xmlns="http://www.w3.org/2000/svg">
    <path d="M0.466914 22V0.999999H6.34691V17.35H16.3969V22H0.466914ZM33.8675 22H17.5775V18.31L25.4375 10.96C25.8575 10.56 26.1975 10.2 26.4575 9.88C26.7175 9.56 26.9075 9.26 27.0275 8.98C27.1675 8.7 27.2575 8.44 27.2975 8.2C27.3575 7.96 27.3875 7.73 27.3875 7.51C27.3875 6.83 27.1575 6.3 26.6975 5.92C26.2375 5.52 25.5475 5.32 24.6275 5.32C23.8475 5.32 23.1275 5.49 22.4675 5.83C21.8075 6.17 21.2675 6.68 20.8475 7.36L16.4975 4.93C17.2775 3.61 18.3975 2.56 19.8575 1.78C21.3375 0.979999 23.1075 0.579999 25.1675 0.579999C26.3675 0.579999 27.4575 0.729998 28.4375 1.03C29.4375 1.33 30.2975 1.76 31.0175 2.32C31.7375 2.86 32.2875 3.53 32.6675 4.33C33.0675 5.11 33.2675 5.98 33.2675 6.94C33.2675 7.46 33.2175 7.97 33.1175 8.47C33.0375 8.97 32.8675 9.49 32.6075 10.03C32.3675 10.57 32.0175 11.13 31.5575 11.71C31.0975 12.29 30.4875 12.93 29.7275 13.63L25.7075 17.35H33.8675V22Z" fill="white"/>
    <path d="M36.7371 0.999999H46.2471C47.6871 0.999999 48.9771 1.18 50.1171 1.54C51.2771 1.9 52.2571 2.42 53.0572 3.1C53.8771 3.76 54.4971 4.57 54.9171 5.53C55.3571 6.47 55.5771 7.54 55.5771 8.74C55.5771 9.94 55.3571 11.02 54.9171 11.98C54.4971 12.92 53.8771 13.73 53.0572 14.41C52.2571 15.07 51.2771 15.58 50.1171 15.94C48.9771 16.3 47.6871 16.48 46.2471 16.48H42.5871V22H36.7071V11.86H45.9171C47.1771 11.86 48.1171 11.59 48.7371 11.05C49.3571 10.49 49.6671 9.72 49.6671 8.74C49.6671 7.76 49.3571 7 48.7371 6.46C48.1171 5.9 47.1771 5.62 45.9171 5.62H36.7071L36.7371 0.999999ZM60.9286 22H54.9286L64.2286 0.999999H69.9886L79.2886 22H73.1986L67.0486 6.73L60.9286 22ZM88.324 22.42C86.604 22.42 84.954 22.21 83.374 21.79C81.794 21.37 80.504 20.81 79.504 20.11L81.454 15.76C82.394 16.4 83.474 16.91 84.694 17.29C85.934 17.65 87.164 17.83 88.384 17.83C89.644 17.83 90.534 17.67 91.054 17.35C91.574 17.03 91.834 16.61 91.834 16.09C91.834 15.67 91.664 15.33 91.324 15.07C90.984 14.81 90.534 14.59 89.974 14.41C89.414 14.23 88.774 14.07 88.054 13.93C87.334 13.77 86.604 13.6 85.864 13.42C85.124 13.22 84.394 12.98 83.674 12.7C82.954 12.4 82.314 12.02 81.754 11.56C81.194 11.1 80.744 10.53 80.404 9.85C80.064 9.17 79.894 8.34 79.894 7.36C79.894 6.42 80.084 5.54 80.464 4.72C80.844 3.9 81.414 3.19 82.174 2.59C82.954 1.97 83.924 1.48 85.084 1.12C86.244 0.759999 87.604 0.579999 89.164 0.579999C90.524 0.579999 91.864 0.739999 93.184 1.06C94.524 1.36 95.704 1.82 96.724 2.44L94.954 6.76C93.934 6.22 92.934 5.82 91.954 5.56C90.994 5.3 90.044 5.17 89.104 5.17C87.844 5.17 86.954 5.36 86.434 5.74C85.934 6.1 85.684 6.54 85.684 7.06C85.684 7.6 85.974 8.01 86.554 8.29C87.154 8.57 87.894 8.82 88.774 9.04C89.654 9.24 90.614 9.46 91.654 9.7C92.694 9.92 93.654 10.26 94.534 10.72C95.414 11.18 96.144 11.8 96.724 12.58C97.324 13.34 97.624 14.36 97.624 15.64C97.624 16.56 97.434 17.43 97.054 18.25C96.674 19.07 96.094 19.79 95.314 20.41C94.534 21.03 93.564 21.52 92.404 21.88C91.244 22.24 89.884 22.42 88.324 22.42ZM107.719 22.42C105.999 22.42 104.349 22.21 102.769 21.79C101.189 21.37 99.8986 20.81 98.8986 20.11L100.849 15.76C101.789 16.4 102.869 16.91 104.089 17.29C105.329 17.65 106.559 17.83 107.779 17.83C109.039 17.83 109.929 17.67 110.449 17.35C110.969 17.03 111.229 16.61 111.229 16.09C111.229 15.67 111.059 15.33 110.719 15.07C110.379 14.81 109.929 14.59 109.369 14.41C108.809 14.23 108.169 14.07 107.449 13.93C106.729 13.77 105.999 13.6 105.259 13.42C104.519 13.22 103.789 12.98 103.069 12.7C102.349 12.4 101.709 12.02 101.149 11.56C100.589 11.1 100.139 10.53 99.7986 9.85C99.4586 9.17 99.2886 8.34 99.2886 7.36C99.2886 6.42 99.4786 5.54 99.8586 4.72C100.239 3.9 100.809 3.19 101.569 2.59C102.349 1.97 103.319 1.48 104.479 1.12C105.639 0.759999 106.999 0.579999 108.559 0.579999C109.919 0.579999 111.259 0.739999 112.579 1.06C113.919 1.36 115.099 1.82 116.119 2.44L114.349 6.76C113.329 6.22 112.329 5.82 111.349 5.56C110.389 5.3 109.439 5.17 108.499 5.17C107.239 5.17 106.349 5.36 105.829 5.74C105.329 6.1 105.079 6.54 105.079 7.06C105.079 7.6 105.369 8.01 105.949 8.29C106.549 8.57 107.289 8.82 108.169 9.04C109.049 9.24 110.009 9.46 111.049 9.7C112.089 9.92 113.049 10.26 113.929 10.72C114.809 11.18 115.539 11.8 116.119 12.58C116.719 13.34 117.019 14.36 117.019 15.64C117.019 16.56 116.829 17.43 116.449 18.25C116.069 19.07 115.489 19.79 114.709 20.41C113.929 21.03 112.959 21.52 111.799 21.88C110.639 22.24 109.279 22.42 107.719 22.42Z" fill="url(#paint0_linear_199_4188)"/>
    <defs>
        <linearGradient id="paint0_linear_199_4188" x1="100.7" y1="-1.01298e-06" x2="96.8589" y2="31.5562" gradientUnits="userSpaceOnUse">
            <stop stop-color="#B75CFF"/>
            <stop offset="1" stop-color="#671AE4"/>
        </linearGradient>
    </defs>
</svg>
